<svg width="882" height="779" viewBox="0 0 882 779" fill="none" xmlns="http://www.w3.org/2000/svg">
<path d="M656.014 75.7173C730.491 101.34 817.196 121.625 848.321 172.871C878.334 224.116 853.879 306.323 858.325 390.665C862.772 475.006 895.008 562.551 876.111 633.014C857.214 703.477 784.96 757.925 707.148 770.737C629.336 783.548 543.742 754.722 461.484 751.52C378.114 749.384 295.856 771.804 243.61 745.114C190.254 718.423 164.687 641.555 116.888 574.295C69.0891 505.967 -2.05328 447.248 7.95113 393.867C19.0671 340.487 110.218 293.511 160.24 229.454C210.262 164.33 219.155 84.2582 261.396 41.5535C304.748 -2.21882 381.449 -6.48928 451.48 6.32213C520.399 19.1336 582.649 50.0945 656.014 75.7173Z" fill="black"/>
<path d="M649.014 80.7173C723.491 106.34 810.196 126.625 841.321 177.871C871.334 229.116 846.879 311.323 851.325 395.665C855.772 480.006 888.008 567.551 869.111 638.014C850.214 708.477 777.96 762.925 700.148 775.737C622.336 788.548 536.742 759.722 454.484 756.52C371.114 754.384 288.856 776.804 236.61 750.114C183.254 723.424 157.687 646.555 109.888 579.295C62.0891 510.967 -9.05328 452.248 0.951126 398.867C12.0671 345.487 103.218 298.511 153.24 234.454C203.262 169.33 212.155 89.2582 254.396 46.5535C297.748 2.78119 374.449 -1.48928 444.48 11.3221C513.399 24.1336 575.648 55.0945 649.014 80.7173Z" fill="#252C28"/>
</svg>
