<svg width="287" height="289" viewBox="0 0 287 289" fill="none" xmlns="http://www.w3.org/2000/svg">
<path d="M212.877 57.1413C237.305 65.6491 265.744 72.3845 275.953 89.4002C285.798 106.416 277.776 133.712 279.235 161.717C280.693 189.722 291.267 218.79 285.068 242.187C278.87 265.583 255.171 283.663 229.648 287.916C204.126 292.17 176.052 282.599 149.071 281.536C121.725 280.827 94.7446 288.271 77.6082 279.409C60.1072 270.546 51.7213 245.023 36.0433 222.69C20.3652 200.002 -2.96948 180.505 0.311969 162.78C3.95802 145.056 33.8556 129.458 50.2628 108.188C66.6701 86.5642 69.5869 59.9772 83.4419 45.7975C97.6615 31.2633 122.819 29.8453 145.789 34.0992C168.395 38.3531 188.813 48.6334 212.877 57.1413Z" fill="white"/>
<path d="M80.6692 3.42391C84.0739 4.58256 88.0375 5.49983 89.4604 7.81714C90.8324 10.1345 89.7145 13.8518 89.9177 17.6657C90.121 21.4796 91.5947 25.4384 90.7308 28.6247C89.8669 31.811 86.5639 34.2731 83.0068 34.8524C79.4496 35.4318 75.5368 34.1283 71.7764 33.9834C67.9652 33.8869 64.2048 34.9007 61.8165 33.6938C59.3773 32.4869 58.2085 29.0109 56.0234 25.9694C53.8384 22.8797 50.5861 20.2244 51.0435 17.8105C51.5516 15.3967 55.7186 13.2725 58.0053 10.3758C60.292 7.43093 60.6985 3.81013 62.6295 1.87904C64.6114 -0.100334 68.1177 -0.293443 71.3191 0.285885C74.4697 0.865212 77.3154 2.26525 80.6692 3.42391Z" fill="white"/>
<path d="M112.609 11.4674C114.056 11.964 115.741 12.3571 116.346 13.3502C116.929 14.3433 116.454 15.9365 116.54 17.571C116.626 19.2056 117.253 20.9022 116.886 22.2677C116.518 23.6333 115.115 24.6885 113.603 24.9368C112.091 25.185 110.428 24.6264 108.83 24.5643C107.21 24.523 105.612 24.9574 104.597 24.4402C103.56 23.9229 103.064 22.4332 102.135 21.1297C101.206 19.8056 99.8241 18.6676 100.018 17.6331C100.234 16.5986 102.005 15.6882 102.977 14.4468C103.949 13.1847 104.122 11.6329 104.943 10.8053C105.785 9.957 107.275 9.87424 108.636 10.1225C109.975 10.3708 111.184 10.9708 112.609 11.4674Z" fill="white"/>
<path d="M68.6094 40.4674C70.0564 40.964 71.741 41.3571 72.3457 42.3502C72.9288 43.3433 72.4536 44.9365 72.54 46.571C72.6264 48.2056 73.2527 49.9022 72.8856 51.2677C72.5184 52.6333 71.1146 53.6885 69.6029 53.9368C68.0911 54.185 66.4281 53.6264 64.83 53.5643C63.2102 53.523 61.6121 53.9574 60.597 53.4402C59.5604 52.9229 59.0636 51.4332 58.135 50.1297C57.2063 48.8056 55.8241 47.6676 56.0185 46.6331C56.2344 45.5986 58.0054 44.6882 58.9772 43.4468C59.9491 42.1847 60.1219 40.6329 60.9426 39.8053C61.7848 38.957 63.275 38.8742 64.6356 39.1225C65.9746 39.3708 67.184 39.9708 68.6094 40.4674Z" fill="white"/>
</svg>
