<svg width="458" height="371" viewBox="0 0 458 371" fill="none" xmlns="http://www.w3.org/2000/svg">
<path d="M339.713 36.2934C378.696 48.5752 424.08 58.2982 440.371 82.8617C456.081 107.425 443.281 146.829 445.608 187.257C447.935 227.684 464.809 269.647 454.918 303.421C445.026 337.196 407.206 363.295 366.477 369.436C325.748 375.577 280.946 361.76 237.89 360.225C194.252 359.201 151.195 369.948 123.849 357.154C95.9202 344.361 82.5378 307.515 57.5185 275.276C32.4992 242.524 -4.73874 214.379 0.497846 188.792C6.31628 163.205 54.0274 140.688 80.2104 109.984C106.393 78.7678 111.048 40.3874 133.158 19.9178C155.85 -1.06354 195.997 -3.1105 232.653 3.03038C268.728 9.17125 301.311 24.0117 339.713 36.2934Z" fill="white"/>
</svg>
